<mxfile host="app.diagrams.net" modified="2021-08-27T08:57:35.836Z" agent="5.0 (Macintosh; Intel Mac OS X 10_15_7) AppleWebKit/605.1.15 (KHTML, like Gecko) Version/14.1.1 Safari/605.1.15" etag="SphsGxb--vj8Q_Vk6-ql" version="14.9.6" type="github">
  <diagram id="zie1XhkyzUYTPIky3YCT" name="Page-1">
    <mxGraphModel dx="809" dy="1639" grid="1" gridSize="10" guides="1" tooltips="1" connect="1" arrows="1" fold="1" page="1" pageScale="1" pageWidth="827" pageHeight="1169" math="0" shadow="0">
      <root>
        <mxCell id="0" />
        <mxCell id="1" parent="0" />
        <mxCell id="4QOHnrd5FksTWiwqYZ14-54" value="" style="rounded=1;whiteSpace=wrap;html=1;" vertex="1" parent="1">
          <mxGeometry x="70" y="-40" width="300" height="420" as="geometry" />
        </mxCell>
        <mxCell id="4QOHnrd5FksTWiwqYZ14-7" value="" style="edgeStyle=orthogonalEdgeStyle;rounded=0;orthogonalLoop=1;jettySize=auto;html=1;" edge="1" parent="1" source="4QOHnrd5FksTWiwqYZ14-1" target="4QOHnrd5FksTWiwqYZ14-6">
          <mxGeometry relative="1" as="geometry" />
        </mxCell>
        <mxCell id="4QOHnrd5FksTWiwqYZ14-1" value="encoder" style="rounded=1;whiteSpace=wrap;html=1;fillColor=#ffe6cc;strokeColor=#d79b00;" vertex="1" parent="1">
          <mxGeometry x="220" y="460" width="120" height="60" as="geometry" />
        </mxCell>
        <mxCell id="4QOHnrd5FksTWiwqYZ14-3" value="" style="edgeStyle=orthogonalEdgeStyle;rounded=0;orthogonalLoop=1;jettySize=auto;html=1;" edge="1" parent="1" source="4QOHnrd5FksTWiwqYZ14-2" target="4QOHnrd5FksTWiwqYZ14-1">
          <mxGeometry relative="1" as="geometry" />
        </mxCell>
        <mxCell id="4QOHnrd5FksTWiwqYZ14-2" value="Input images" style="text;html=1;strokeColor=none;fillColor=none;align=center;verticalAlign=middle;whiteSpace=wrap;rounded=0;" vertex="1" parent="1">
          <mxGeometry x="260" y="540" width="40" height="20" as="geometry" />
        </mxCell>
        <mxCell id="4QOHnrd5FksTWiwqYZ14-9" value="" style="edgeStyle=orthogonalEdgeStyle;rounded=0;orthogonalLoop=1;jettySize=auto;html=1;entryX=0.5;entryY=1;entryDx=0;entryDy=0;" edge="1" parent="1" source="4QOHnrd5FksTWiwqYZ14-6" target="4QOHnrd5FksTWiwqYZ14-8">
          <mxGeometry relative="1" as="geometry">
            <Array as="points">
              <mxPoint x="145" y="350" />
            </Array>
          </mxGeometry>
        </mxCell>
        <mxCell id="4QOHnrd5FksTWiwqYZ14-18" style="edgeStyle=orthogonalEdgeStyle;rounded=0;orthogonalLoop=1;jettySize=auto;html=1;entryX=0.5;entryY=1;entryDx=0;entryDy=0;" edge="1" parent="1" target="4QOHnrd5FksTWiwqYZ14-16">
          <mxGeometry relative="1" as="geometry">
            <mxPoint x="220" y="350" as="sourcePoint" />
            <Array as="points">
              <mxPoint x="220" y="350" />
            </Array>
          </mxGeometry>
        </mxCell>
        <mxCell id="4QOHnrd5FksTWiwqYZ14-59" value="" style="edgeStyle=orthogonalEdgeStyle;rounded=0;orthogonalLoop=1;jettySize=auto;html=1;" edge="1" parent="1" source="4QOHnrd5FksTWiwqYZ14-6">
          <mxGeometry relative="1" as="geometry">
            <mxPoint x="510" y="350" as="targetPoint" />
          </mxGeometry>
        </mxCell>
        <mxCell id="4QOHnrd5FksTWiwqYZ14-6" value="encode&amp;nbsp;&lt;br&gt;features" style="text;html=1;strokeColor=none;fillColor=none;align=center;verticalAlign=middle;whiteSpace=wrap;rounded=0;" vertex="1" parent="1">
          <mxGeometry x="260" y="420" width="40" height="20" as="geometry" />
        </mxCell>
        <mxCell id="4QOHnrd5FksTWiwqYZ14-17" value="" style="edgeStyle=orthogonalEdgeStyle;rounded=0;orthogonalLoop=1;jettySize=auto;html=1;" edge="1" parent="1" source="4QOHnrd5FksTWiwqYZ14-8" target="4QOHnrd5FksTWiwqYZ14-16">
          <mxGeometry relative="1" as="geometry" />
        </mxCell>
        <mxCell id="4QOHnrd5FksTWiwqYZ14-8" value="attention &lt;br&gt;unit" style="rounded=1;whiteSpace=wrap;html=1;fillColor=#d5e8d4;strokeColor=#82b366;" vertex="1" parent="1">
          <mxGeometry x="110" y="270" width="70" height="60" as="geometry" />
        </mxCell>
        <mxCell id="4QOHnrd5FksTWiwqYZ14-12" value="" style="edgeStyle=orthogonalEdgeStyle;rounded=0;orthogonalLoop=1;jettySize=auto;html=1;" edge="1" parent="1" source="4QOHnrd5FksTWiwqYZ14-10" target="4QOHnrd5FksTWiwqYZ14-11">
          <mxGeometry relative="1" as="geometry" />
        </mxCell>
        <mxCell id="4QOHnrd5FksTWiwqYZ14-13" value="" style="edgeStyle=orthogonalEdgeStyle;rounded=0;orthogonalLoop=1;jettySize=auto;html=1;" edge="1" parent="1" source="4QOHnrd5FksTWiwqYZ14-10" target="4QOHnrd5FksTWiwqYZ14-8">
          <mxGeometry relative="1" as="geometry" />
        </mxCell>
        <mxCell id="4QOHnrd5FksTWiwqYZ14-10" value="S_prev" style="text;html=1;strokeColor=none;fillColor=none;align=center;verticalAlign=middle;whiteSpace=wrap;rounded=0;" vertex="1" parent="1">
          <mxGeometry x="20" y="200" width="40" height="20" as="geometry" />
        </mxCell>
        <mxCell id="4QOHnrd5FksTWiwqYZ14-25" value="" style="edgeStyle=orthogonalEdgeStyle;rounded=0;orthogonalLoop=1;jettySize=auto;html=1;" edge="1" parent="1" source="4QOHnrd5FksTWiwqYZ14-11" target="4QOHnrd5FksTWiwqYZ14-24">
          <mxGeometry relative="1" as="geometry" />
        </mxCell>
        <mxCell id="4QOHnrd5FksTWiwqYZ14-34" value="" style="edgeStyle=orthogonalEdgeStyle;rounded=0;orthogonalLoop=1;jettySize=auto;html=1;" edge="1" parent="1" source="4QOHnrd5FksTWiwqYZ14-11" target="4QOHnrd5FksTWiwqYZ14-33">
          <mxGeometry relative="1" as="geometry" />
        </mxCell>
        <mxCell id="4QOHnrd5FksTWiwqYZ14-11" value="GRU" style="rounded=1;whiteSpace=wrap;html=1;fillColor=#d5e8d4;strokeColor=#82b366;" vertex="1" parent="1">
          <mxGeometry x="220" y="180" width="120" height="60" as="geometry" />
        </mxCell>
        <mxCell id="4QOHnrd5FksTWiwqYZ14-22" value="" style="edgeStyle=orthogonalEdgeStyle;rounded=0;orthogonalLoop=1;jettySize=auto;html=1;startArrow=none;" edge="1" parent="1" target="4QOHnrd5FksTWiwqYZ14-21">
          <mxGeometry relative="1" as="geometry">
            <mxPoint x="250" y="300" as="sourcePoint" />
          </mxGeometry>
        </mxCell>
        <mxCell id="4QOHnrd5FksTWiwqYZ14-16" value="bmm" style="ellipse;whiteSpace=wrap;html=1;rounded=1;strokeColor=#82b366;fillColor=#d5e8d4;" vertex="1" parent="1">
          <mxGeometry x="200" y="280" width="40" height="40" as="geometry" />
        </mxCell>
        <mxCell id="4QOHnrd5FksTWiwqYZ14-23" value="" style="edgeStyle=orthogonalEdgeStyle;rounded=0;orthogonalLoop=1;jettySize=auto;html=1;" edge="1" parent="1" source="4QOHnrd5FksTWiwqYZ14-21" target="4QOHnrd5FksTWiwqYZ14-11">
          <mxGeometry relative="1" as="geometry" />
        </mxCell>
        <mxCell id="4QOHnrd5FksTWiwqYZ14-21" value="concat" style="ellipse;whiteSpace=wrap;html=1;rounded=1;strokeColor=#82b366;fillColor=#d5e8d4;" vertex="1" parent="1">
          <mxGeometry x="260" y="280" width="40" height="40" as="geometry" />
        </mxCell>
        <mxCell id="4QOHnrd5FksTWiwqYZ14-27" value="" style="edgeStyle=orthogonalEdgeStyle;rounded=0;orthogonalLoop=1;jettySize=auto;html=1;" edge="1" parent="1" source="4QOHnrd5FksTWiwqYZ14-24" target="4QOHnrd5FksTWiwqYZ14-26">
          <mxGeometry relative="1" as="geometry" />
        </mxCell>
        <mxCell id="4QOHnrd5FksTWiwqYZ14-24" value="FC" style="rounded=1;whiteSpace=wrap;html=1;fillColor=#d5e8d4;strokeColor=#82b366;" vertex="1" parent="1">
          <mxGeometry x="220" y="90" width="120" height="60" as="geometry" />
        </mxCell>
        <mxCell id="4QOHnrd5FksTWiwqYZ14-32" value="" style="edgeStyle=orthogonalEdgeStyle;rounded=0;orthogonalLoop=1;jettySize=auto;html=1;" edge="1" parent="1" source="4QOHnrd5FksTWiwqYZ14-26" target="4QOHnrd5FksTWiwqYZ14-30">
          <mxGeometry relative="1" as="geometry" />
        </mxCell>
        <mxCell id="4QOHnrd5FksTWiwqYZ14-53" value="" style="edgeStyle=orthogonalEdgeStyle;rounded=0;orthogonalLoop=1;jettySize=auto;html=1;" edge="1" parent="1" source="4QOHnrd5FksTWiwqYZ14-26" target="4QOHnrd5FksTWiwqYZ14-52">
          <mxGeometry relative="1" as="geometry" />
        </mxCell>
        <mxCell id="4QOHnrd5FksTWiwqYZ14-26" value="Softmax" style="rounded=1;whiteSpace=wrap;html=1;fillColor=#d5e8d4;strokeColor=#82b366;" vertex="1" parent="1">
          <mxGeometry x="220" y="10" width="120" height="60" as="geometry" />
        </mxCell>
        <mxCell id="4QOHnrd5FksTWiwqYZ14-30" value="Y_next" style="text;html=1;strokeColor=none;fillColor=none;align=center;verticalAlign=middle;whiteSpace=wrap;rounded=0;" vertex="1" parent="1">
          <mxGeometry x="414" y="30" width="40" height="20" as="geometry" />
        </mxCell>
        <mxCell id="4QOHnrd5FksTWiwqYZ14-33" value="S_next" style="text;html=1;strokeColor=none;fillColor=none;align=center;verticalAlign=middle;whiteSpace=wrap;rounded=0;" vertex="1" parent="1">
          <mxGeometry x="414" y="200" width="40" height="20" as="geometry" />
        </mxCell>
        <mxCell id="4QOHnrd5FksTWiwqYZ14-41" value="" style="edgeStyle=orthogonalEdgeStyle;rounded=0;orthogonalLoop=1;jettySize=auto;html=1;" edge="1" parent="1" source="4QOHnrd5FksTWiwqYZ14-35" target="4QOHnrd5FksTWiwqYZ14-40">
          <mxGeometry relative="1" as="geometry" />
        </mxCell>
        <mxCell id="4QOHnrd5FksTWiwqYZ14-35" value="Y_prev" style="text;html=1;strokeColor=none;fillColor=none;align=center;verticalAlign=middle;whiteSpace=wrap;rounded=0;" vertex="1" parent="1">
          <mxGeometry x="20" y="-10" width="40" height="20" as="geometry" />
        </mxCell>
        <mxCell id="4QOHnrd5FksTWiwqYZ14-46" value="" style="edgeStyle=orthogonalEdgeStyle;rounded=0;orthogonalLoop=1;jettySize=auto;html=1;" edge="1" parent="1" source="4QOHnrd5FksTWiwqYZ14-40" target="4QOHnrd5FksTWiwqYZ14-45">
          <mxGeometry relative="1" as="geometry" />
        </mxCell>
        <mxCell id="4QOHnrd5FksTWiwqYZ14-40" value="&lt;span&gt;argmax&lt;/span&gt;" style="ellipse;whiteSpace=wrap;html=1;fillColor=#d5e8d4;strokeColor=#82b366;" vertex="1" parent="1">
          <mxGeometry x="125" y="-20" width="40" height="40" as="geometry" />
        </mxCell>
        <mxCell id="4QOHnrd5FksTWiwqYZ14-48" value="" style="edgeStyle=orthogonalEdgeStyle;rounded=0;orthogonalLoop=1;jettySize=auto;html=1;" edge="1" parent="1" source="4QOHnrd5FksTWiwqYZ14-45">
          <mxGeometry relative="1" as="geometry">
            <mxPoint x="250" y="300" as="targetPoint" />
            <Array as="points">
              <mxPoint x="145" y="170" />
              <mxPoint x="190" y="170" />
              <mxPoint x="190" y="260" />
              <mxPoint x="250" y="260" />
            </Array>
          </mxGeometry>
        </mxCell>
        <mxCell id="4QOHnrd5FksTWiwqYZ14-45" value="nn.Embeding" style="rounded=1;whiteSpace=wrap;html=1;fillColor=#d5e8d4;strokeColor=#82b366;" vertex="1" parent="1">
          <mxGeometry x="85" y="90" width="120" height="60" as="geometry" />
        </mxCell>
        <mxCell id="4QOHnrd5FksTWiwqYZ14-49" value="" style="edgeStyle=orthogonalEdgeStyle;rounded=0;orthogonalLoop=1;jettySize=auto;html=1;endArrow=none;" edge="1" parent="1" source="4QOHnrd5FksTWiwqYZ14-16">
          <mxGeometry relative="1" as="geometry">
            <mxPoint x="240" y="300" as="sourcePoint" />
            <mxPoint x="250" y="300" as="targetPoint" />
          </mxGeometry>
        </mxCell>
        <mxCell id="4QOHnrd5FksTWiwqYZ14-52" value="Y_now" style="text;html=1;strokeColor=none;fillColor=none;align=center;verticalAlign=middle;whiteSpace=wrap;rounded=0;" vertex="1" parent="1">
          <mxGeometry x="260" y="-90" width="40" height="20" as="geometry" />
        </mxCell>
        <mxCell id="4QOHnrd5FksTWiwqYZ14-56" value="&lt;b&gt;&lt;font color=&quot;#ff0000&quot;&gt;一个时间步计算&lt;/font&gt;&lt;/b&gt;" style="text;html=1;strokeColor=none;fillColor=none;align=center;verticalAlign=middle;whiteSpace=wrap;rounded=0;" vertex="1" parent="1">
          <mxGeometry x="310" y="350" width="60" height="20" as="geometry" />
        </mxCell>
      </root>
    </mxGraphModel>
  </diagram>
</mxfile>
